<mxfile host="app.diagrams.net" agent="Mozilla/5.0 (Windows NT 10.0; Win64; x64) AppleWebKit/537.36 (KHTML, like Gecko) Chrome/141.0.0.0 Safari/537.36" version="28.2.8">
  <diagram name="Page-1" id="dL9VV4bmaPXsRKPy24r-">
    <mxGraphModel dx="2239" dy="712" grid="1" gridSize="10" guides="1" tooltips="1" connect="1" arrows="1" fold="1" page="1" pageScale="1" pageWidth="850" pageHeight="1100" math="0" shadow="0">
      <root>
        <mxCell id="0" />
        <mxCell id="1" parent="0" />
        <mxCell id="4laWTSnIHKEGQz96bBe--4" value="&lt;span style=&quot;color: rgba(0, 0, 0, 0); font-family: monospace; font-size: 0px; text-align: start; text-wrap-mode: nowrap;&quot;&gt;%3CmxGraphModel%3E%3Croot%3E%3CmxCell%20id%3D%220%22%2F%3E%3CmxCell%20id%3D%221%22%20parent%3D%220%22%2F%3E%3CmxCell%20id%3D%222%22%20value%3D%22%22%20style%3D%22group%22%20vertex%3D%221%22%20connectable%3D%220%22%20parent%3D%221%22%3E%3CmxGeometry%20x%3D%22856.3%22%20y%3D%2240%22%20width%3D%22300%22%20height%3D%22110%22%20as%3D%22geometry%22%2F%3E%3C%2FmxCell%3E%3CmxCell%20id%3D%223%22%20value%3D%22%22%20style%3D%22rounded%3D0%3BwhiteSpace%3Dwrap%3Bhtml%3D1%3B%22%20vertex%3D%221%22%20parent%3D%222%22%3E%3CmxGeometry%20x%3D%22-16.3%22%20y%3D%22-10%22%20width%3D%22316.3%22%20height%3D%22120%22%20as%3D%22geometry%22%2F%3E%3C%2FmxCell%3E%3CmxCell%20id%3D%224%22%20value%3D%22ESP%20C3%20mini%22%20style%3D%22rounded%3D0%3BwhiteSpace%3Dwrap%3Bhtml%3D1%3B%22%20vertex%3D%221%22%20parent%3D%222%22%3E%3CmxGeometry%20width%3D%2280%22%20height%3D%2290%22%20as%3D%22geometry%22%2F%3E%3C%2FmxCell%3E%3CmxCell%20id%3D%225%22%20value%3D%22%22%20style%3D%22rounded%3D0%3BwhiteSpace%3Dwrap%3Bhtml%3D1%3B%22%20vertex%3D%221%22%20parent%3D%222%22%3E%3CmxGeometry%20x%3D%2220%22%20y%3D%2270%22%20width%3D%2240%22%20height%3D%2210%22%20as%3D%22geometry%22%2F%3E%3C%2FmxCell%3E%3CmxCell%20id%3D%226%22%20value%3D%22%22%20style%3D%22rounded%3D0%3BwhiteSpace%3Dwrap%3Bhtml%3D1%3B%22%20vertex%3D%221%22%20parent%3D%222%22%3E%3CmxGeometry%20x%3D%2220%22%20width%3D%2240%22%20height%3D%2230%22%20as%3D%22geometry%22%2F%3E%3C%2FmxCell%3E%3C%2Froot%3E%3C%2FmxGraphModel%3E&lt;/span&gt;" style="rounded=0;whiteSpace=wrap;html=1;fontSize=14;" vertex="1" parent="1">
          <mxGeometry x="840" y="360" width="316.3" height="120" as="geometry" />
        </mxCell>
        <mxCell id="2zIadrbv-KkHklu8nSw9-6" value="" style="group" parent="1" vertex="1" connectable="0">
          <mxGeometry x="80" y="160" width="120" height="200" as="geometry" />
        </mxCell>
        <mxCell id="2zIadrbv-KkHklu8nSw9-1" value="ESP32 Wroom&lt;br&gt;(MQTT-client)" style="rounded=0;whiteSpace=wrap;html=1;" parent="2zIadrbv-KkHklu8nSw9-6" vertex="1">
          <mxGeometry width="120" height="200" as="geometry" />
        </mxCell>
        <mxCell id="2zIadrbv-KkHklu8nSw9-4" value="" style="rounded=0;whiteSpace=wrap;html=1;" parent="2zIadrbv-KkHklu8nSw9-6" vertex="1">
          <mxGeometry x="20" width="80" height="60" as="geometry" />
        </mxCell>
        <mxCell id="2zIadrbv-KkHklu8nSw9-7" value="" style="group" parent="1" vertex="1" connectable="0">
          <mxGeometry x="360" y="160" width="120" height="200" as="geometry" />
        </mxCell>
        <mxCell id="2zIadrbv-KkHklu8nSw9-2" value="ESP32 Wroom&lt;br&gt;(ESP-NOW)" style="rounded=0;whiteSpace=wrap;html=1;" parent="2zIadrbv-KkHklu8nSw9-7" vertex="1">
          <mxGeometry width="120" height="200" as="geometry" />
        </mxCell>
        <mxCell id="2zIadrbv-KkHklu8nSw9-5" value="" style="rounded=0;whiteSpace=wrap;html=1;" parent="2zIadrbv-KkHklu8nSw9-7" vertex="1">
          <mxGeometry x="20" width="80" height="60" as="geometry" />
        </mxCell>
        <mxCell id="2zIadrbv-KkHklu8nSw9-8" value="" style="endArrow=classic;startArrow=classic;html=1;rounded=0;exitX=1;exitY=0.5;exitDx=0;exitDy=0;entryX=0;entryY=0.5;entryDx=0;entryDy=0;" parent="1" source="2zIadrbv-KkHklu8nSw9-1" target="2zIadrbv-KkHklu8nSw9-2" edge="1">
          <mxGeometry width="50" height="50" relative="1" as="geometry">
            <mxPoint x="230" y="310" as="sourcePoint" />
            <mxPoint x="340" y="260" as="targetPoint" />
          </mxGeometry>
        </mxCell>
        <mxCell id="2zIadrbv-KkHklu8nSw9-9" value="Serial" style="edgeLabel;html=1;align=center;verticalAlign=middle;resizable=0;points=[];" parent="2zIadrbv-KkHklu8nSw9-8" vertex="1" connectable="0">
          <mxGeometry x="0.0039" y="-2" relative="1" as="geometry">
            <mxPoint as="offset" />
          </mxGeometry>
        </mxCell>
        <mxCell id="2zIadrbv-KkHklu8nSw9-10" value="Master" style="text;html=1;whiteSpace=wrap;strokeColor=none;fillColor=none;align=center;verticalAlign=middle;rounded=0;" parent="1" vertex="1">
          <mxGeometry x="250" y="30" width="60" height="30" as="geometry" />
        </mxCell>
        <mxCell id="2zIadrbv-KkHklu8nSw9-14" value="" style="group" parent="1" vertex="1" connectable="0">
          <mxGeometry x="856.3" y="40" width="300" height="110" as="geometry" />
        </mxCell>
        <mxCell id="4laWTSnIHKEGQz96bBe--1" value="&lt;span style=&quot;color: rgba(0, 0, 0, 0); font-family: monospace; font-size: 0px; text-align: start; text-wrap-mode: nowrap;&quot;&gt;%3CmxGraphModel%3E%3Croot%3E%3CmxCell%20id%3D%220%22%2F%3E%3CmxCell%20id%3D%221%22%20parent%3D%220%22%2F%3E%3CmxCell%20id%3D%222%22%20value%3D%22%22%20style%3D%22group%22%20vertex%3D%221%22%20connectable%3D%220%22%20parent%3D%221%22%3E%3CmxGeometry%20x%3D%22856.3%22%20y%3D%2240%22%20width%3D%22300%22%20height%3D%22110%22%20as%3D%22geometry%22%2F%3E%3C%2FmxCell%3E%3CmxCell%20id%3D%223%22%20value%3D%22%22%20style%3D%22rounded%3D0%3BwhiteSpace%3Dwrap%3Bhtml%3D1%3B%22%20vertex%3D%221%22%20parent%3D%222%22%3E%3CmxGeometry%20x%3D%22-16.3%22%20y%3D%22-10%22%20width%3D%22316.3%22%20height%3D%22120%22%20as%3D%22geometry%22%2F%3E%3C%2FmxCell%3E%3CmxCell%20id%3D%224%22%20value%3D%22ESP%20C3%20mini%22%20style%3D%22rounded%3D0%3BwhiteSpace%3Dwrap%3Bhtml%3D1%3B%22%20vertex%3D%221%22%20parent%3D%222%22%3E%3CmxGeometry%20width%3D%2280%22%20height%3D%2290%22%20as%3D%22geometry%22%2F%3E%3C%2FmxCell%3E%3CmxCell%20id%3D%225%22%20value%3D%22%22%20style%3D%22rounded%3D0%3BwhiteSpace%3Dwrap%3Bhtml%3D1%3B%22%20vertex%3D%221%22%20parent%3D%222%22%3E%3CmxGeometry%20x%3D%2220%22%20y%3D%2270%22%20width%3D%2240%22%20height%3D%2210%22%20as%3D%22geometry%22%2F%3E%3C%2FmxCell%3E%3CmxCell%20id%3D%226%22%20value%3D%22%22%20style%3D%22rounded%3D0%3BwhiteSpace%3Dwrap%3Bhtml%3D1%3B%22%20vertex%3D%221%22%20parent%3D%222%22%3E%3CmxGeometry%20x%3D%2220%22%20width%3D%2240%22%20height%3D%2230%22%20as%3D%22geometry%22%2F%3E%3C%2FmxCell%3E%3C%2Froot%3E%3C%2FmxGraphModel%3E&lt;/span&gt;" style="rounded=0;whiteSpace=wrap;html=1;" vertex="1" parent="2zIadrbv-KkHklu8nSw9-14">
          <mxGeometry x="-16.3" y="-10" width="316.3" height="120" as="geometry" />
        </mxCell>
        <mxCell id="2zIadrbv-KkHklu8nSw9-11" value="ESP C3 mini" style="rounded=0;whiteSpace=wrap;html=1;" parent="2zIadrbv-KkHklu8nSw9-14" vertex="1">
          <mxGeometry width="80" height="90" as="geometry" />
        </mxCell>
        <mxCell id="2zIadrbv-KkHklu8nSw9-12" value="" style="rounded=0;whiteSpace=wrap;html=1;" parent="2zIadrbv-KkHklu8nSw9-14" vertex="1">
          <mxGeometry x="20" y="70" width="40" height="10" as="geometry" />
        </mxCell>
        <mxCell id="2zIadrbv-KkHklu8nSw9-13" value="" style="rounded=0;whiteSpace=wrap;html=1;" parent="2zIadrbv-KkHklu8nSw9-14" vertex="1">
          <mxGeometry x="20" width="40" height="30" as="geometry" />
        </mxCell>
        <mxCell id="2zIadrbv-KkHklu8nSw9-15" value="" style="group" parent="1" vertex="1" connectable="0">
          <mxGeometry x="856.3" y="215" width="300.00000000000006" height="105" as="geometry" />
        </mxCell>
        <mxCell id="4laWTSnIHKEGQz96bBe--3" value="&lt;span style=&quot;color: rgba(0, 0, 0, 0); font-family: monospace; font-size: 0px; text-align: start; text-wrap-mode: nowrap;&quot;&gt;%3CmxGraphModel%3E%3Croot%3E%3CmxCell%20id%3D%220%22%2F%3E%3CmxCell%20id%3D%221%22%20parent%3D%220%22%2F%3E%3CmxCell%20id%3D%222%22%20value%3D%22%22%20style%3D%22group%22%20vertex%3D%221%22%20connectable%3D%220%22%20parent%3D%221%22%3E%3CmxGeometry%20x%3D%22856.3%22%20y%3D%2240%22%20width%3D%22300%22%20height%3D%22110%22%20as%3D%22geometry%22%2F%3E%3C%2FmxCell%3E%3CmxCell%20id%3D%223%22%20value%3D%22%22%20style%3D%22rounded%3D0%3BwhiteSpace%3Dwrap%3Bhtml%3D1%3B%22%20vertex%3D%221%22%20parent%3D%222%22%3E%3CmxGeometry%20x%3D%22-16.3%22%20y%3D%22-10%22%20width%3D%22316.3%22%20height%3D%22120%22%20as%3D%22geometry%22%2F%3E%3C%2FmxCell%3E%3CmxCell%20id%3D%224%22%20value%3D%22ESP%20C3%20mini%22%20style%3D%22rounded%3D0%3BwhiteSpace%3Dwrap%3Bhtml%3D1%3B%22%20vertex%3D%221%22%20parent%3D%222%22%3E%3CmxGeometry%20width%3D%2280%22%20height%3D%2290%22%20as%3D%22geometry%22%2F%3E%3C%2FmxCell%3E%3CmxCell%20id%3D%225%22%20value%3D%22%22%20style%3D%22rounded%3D0%3BwhiteSpace%3Dwrap%3Bhtml%3D1%3B%22%20vertex%3D%221%22%20parent%3D%222%22%3E%3CmxGeometry%20x%3D%2220%22%20y%3D%2270%22%20width%3D%2240%22%20height%3D%2210%22%20as%3D%22geometry%22%2F%3E%3C%2FmxCell%3E%3CmxCell%20id%3D%226%22%20value%3D%22%22%20style%3D%22rounded%3D0%3BwhiteSpace%3Dwrap%3Bhtml%3D1%3B%22%20vertex%3D%221%22%20parent%3D%222%22%3E%3CmxGeometry%20x%3D%2220%22%20width%3D%2240%22%20height%3D%2230%22%20as%3D%22geometry%22%2F%3E%3C%2FmxCell%3E%3C%2Froot%3E%3C%2FmxGraphModel%3E&lt;/span&gt;" style="rounded=0;whiteSpace=wrap;html=1;fontSize=14;" vertex="1" parent="2zIadrbv-KkHklu8nSw9-15">
          <mxGeometry x="-16.299999999999955" y="-15" width="316.3" height="120" as="geometry" />
        </mxCell>
        <mxCell id="2zIadrbv-KkHklu8nSw9-16" value="ESP C3 mini" style="rounded=0;whiteSpace=wrap;html=1;" parent="2zIadrbv-KkHklu8nSw9-15" vertex="1">
          <mxGeometry width="80" height="90" as="geometry" />
        </mxCell>
        <mxCell id="2zIadrbv-KkHklu8nSw9-17" value="" style="rounded=0;whiteSpace=wrap;html=1;" parent="2zIadrbv-KkHklu8nSw9-15" vertex="1">
          <mxGeometry x="20" y="70" width="40" height="10" as="geometry" />
        </mxCell>
        <mxCell id="2zIadrbv-KkHklu8nSw9-18" value="" style="rounded=0;whiteSpace=wrap;html=1;" parent="2zIadrbv-KkHklu8nSw9-15" vertex="1">
          <mxGeometry x="20" width="40" height="30" as="geometry" />
        </mxCell>
        <mxCell id="2zIadrbv-KkHklu8nSw9-19" value="" style="group" parent="1" vertex="1" connectable="0">
          <mxGeometry x="856.3" y="375" width="80" height="90" as="geometry" />
        </mxCell>
        <mxCell id="2zIadrbv-KkHklu8nSw9-20" value="ESP C3 mini" style="rounded=0;whiteSpace=wrap;html=1;" parent="2zIadrbv-KkHklu8nSw9-19" vertex="1">
          <mxGeometry width="80" height="90" as="geometry" />
        </mxCell>
        <mxCell id="2zIadrbv-KkHklu8nSw9-21" value="" style="rounded=0;whiteSpace=wrap;html=1;" parent="2zIadrbv-KkHklu8nSw9-19" vertex="1">
          <mxGeometry x="20" y="70" width="40" height="10" as="geometry" />
        </mxCell>
        <mxCell id="2zIadrbv-KkHklu8nSw9-22" value="" style="rounded=0;whiteSpace=wrap;html=1;" parent="2zIadrbv-KkHklu8nSw9-19" vertex="1">
          <mxGeometry x="20" width="40" height="30" as="geometry" />
        </mxCell>
        <mxCell id="2zIadrbv-KkHklu8nSw9-23" value="" style="endArrow=classic;startArrow=classic;html=1;rounded=0;entryX=0;entryY=0.5;entryDx=0;entryDy=0;exitX=1;exitY=0.5;exitDx=0;exitDy=0;" parent="1" source="2zIadrbv-KkHklu8nSw9-2" target="2zIadrbv-KkHklu8nSw9-11" edge="1">
          <mxGeometry width="50" height="50" relative="1" as="geometry">
            <mxPoint x="520" y="300" as="sourcePoint" />
            <mxPoint x="570" y="250" as="targetPoint" />
          </mxGeometry>
        </mxCell>
        <mxCell id="2zIadrbv-KkHklu8nSw9-27" value="ESP-Now" style="edgeLabel;html=1;align=center;verticalAlign=middle;resizable=0;points=[];" parent="2zIadrbv-KkHklu8nSw9-23" vertex="1" connectable="0">
          <mxGeometry x="-0.0345" y="4" relative="1" as="geometry">
            <mxPoint as="offset" />
          </mxGeometry>
        </mxCell>
        <mxCell id="2zIadrbv-KkHklu8nSw9-24" value="" style="endArrow=classic;startArrow=classic;html=1;rounded=0;entryX=0;entryY=0.5;entryDx=0;entryDy=0;exitX=1;exitY=0.5;exitDx=0;exitDy=0;" parent="1" source="2zIadrbv-KkHklu8nSw9-2" target="2zIadrbv-KkHklu8nSw9-16" edge="1">
          <mxGeometry width="50" height="50" relative="1" as="geometry">
            <mxPoint x="510" y="265" as="sourcePoint" />
            <mxPoint x="710" y="90" as="targetPoint" />
          </mxGeometry>
        </mxCell>
        <mxCell id="2zIadrbv-KkHklu8nSw9-28" value="ESP-Now" style="edgeLabel;html=1;align=center;verticalAlign=middle;resizable=0;points=[];" parent="2zIadrbv-KkHklu8nSw9-24" vertex="1" connectable="0">
          <mxGeometry x="0.0267" y="-3" relative="1" as="geometry">
            <mxPoint as="offset" />
          </mxGeometry>
        </mxCell>
        <mxCell id="2zIadrbv-KkHklu8nSw9-25" value="" style="endArrow=classic;startArrow=classic;html=1;rounded=0;entryX=0;entryY=0.5;entryDx=0;entryDy=0;exitX=1;exitY=0.5;exitDx=0;exitDy=0;" parent="1" source="2zIadrbv-KkHklu8nSw9-2" target="2zIadrbv-KkHklu8nSw9-20" edge="1">
          <mxGeometry width="50" height="50" relative="1" as="geometry">
            <mxPoint x="590" y="265" as="sourcePoint" />
            <mxPoint x="790" y="250" as="targetPoint" />
          </mxGeometry>
        </mxCell>
        <mxCell id="2zIadrbv-KkHklu8nSw9-29" value="ESP-Now" style="edgeLabel;html=1;align=center;verticalAlign=middle;resizable=0;points=[];" parent="2zIadrbv-KkHklu8nSw9-25" vertex="1" connectable="0">
          <mxGeometry x="0.0474" y="-2" relative="1" as="geometry">
            <mxPoint as="offset" />
          </mxGeometry>
        </mxCell>
        <mxCell id="2zIadrbv-KkHklu8nSw9-30" value="Infrared Sensor" style="rounded=0;whiteSpace=wrap;html=1;" parent="1" vertex="1">
          <mxGeometry x="1016.3" y="60" width="120" height="60" as="geometry" />
        </mxCell>
        <mxCell id="2zIadrbv-KkHklu8nSw9-32" style="edgeStyle=orthogonalEdgeStyle;rounded=0;orthogonalLoop=1;jettySize=auto;html=1;entryX=1.035;entryY=0.557;entryDx=0;entryDy=0;entryPerimeter=0;" parent="1" source="2zIadrbv-KkHklu8nSw9-30" target="2zIadrbv-KkHklu8nSw9-11" edge="1">
          <mxGeometry relative="1" as="geometry" />
        </mxCell>
        <mxCell id="2zIadrbv-KkHklu8nSw9-33" value="Ultrasonic Sensor" style="rounded=0;whiteSpace=wrap;html=1;" parent="1" vertex="1">
          <mxGeometry x="1016.3" y="230" width="120" height="60" as="geometry" />
        </mxCell>
        <mxCell id="2zIadrbv-KkHklu8nSw9-34" style="edgeStyle=orthogonalEdgeStyle;rounded=0;orthogonalLoop=1;jettySize=auto;html=1;entryX=1;entryY=0.5;entryDx=0;entryDy=0;" parent="1" source="2zIadrbv-KkHklu8nSw9-33" target="2zIadrbv-KkHklu8nSw9-16" edge="1">
          <mxGeometry relative="1" as="geometry">
            <mxPoint x="976.3" y="230" as="targetPoint" />
          </mxGeometry>
        </mxCell>
        <mxCell id="2zIadrbv-KkHklu8nSw9-35" value="Servo Motor" style="rounded=0;whiteSpace=wrap;html=1;" parent="1" vertex="1">
          <mxGeometry x="1016.3" y="390" width="120" height="60" as="geometry" />
        </mxCell>
        <mxCell id="2zIadrbv-KkHklu8nSw9-37" style="edgeStyle=orthogonalEdgeStyle;rounded=0;orthogonalLoop=1;jettySize=auto;html=1;entryX=0;entryY=0.5;entryDx=0;entryDy=0;" parent="1" source="2zIadrbv-KkHklu8nSw9-20" target="2zIadrbv-KkHklu8nSw9-35" edge="1">
          <mxGeometry relative="1" as="geometry" />
        </mxCell>
        <mxCell id="2zIadrbv-KkHklu8nSw9-44" value="" style="group" parent="1" vertex="1" connectable="0">
          <mxGeometry x="856.3" y="520" width="300.00000000000006" height="140" as="geometry" />
        </mxCell>
        <mxCell id="4laWTSnIHKEGQz96bBe--5" value="&lt;span style=&quot;color: rgba(0, 0, 0, 0); font-family: monospace; font-size: 0px; text-align: start; text-wrap-mode: nowrap;&quot;&gt;%3CmxGraphModel%3E%3Croot%3E%3CmxCell%20id%3D%220%22%2F%3E%3CmxCell%20id%3D%221%22%20parent%3D%220%22%2F%3E%3CmxCell%20id%3D%222%22%20value%3D%22%22%20style%3D%22group%22%20vertex%3D%221%22%20connectable%3D%220%22%20parent%3D%221%22%3E%3CmxGeometry%20x%3D%22856.3%22%20y%3D%2240%22%20width%3D%22300%22%20height%3D%22110%22%20as%3D%22geometry%22%2F%3E%3C%2FmxCell%3E%3CmxCell%20id%3D%223%22%20value%3D%22%22%20style%3D%22rounded%3D0%3BwhiteSpace%3Dwrap%3Bhtml%3D1%3B%22%20vertex%3D%221%22%20parent%3D%222%22%3E%3CmxGeometry%20x%3D%22-16.3%22%20y%3D%22-10%22%20width%3D%22316.3%22%20height%3D%22120%22%20as%3D%22geometry%22%2F%3E%3C%2FmxCell%3E%3CmxCell%20id%3D%224%22%20value%3D%22ESP%20C3%20mini%22%20style%3D%22rounded%3D0%3BwhiteSpace%3Dwrap%3Bhtml%3D1%3B%22%20vertex%3D%221%22%20parent%3D%222%22%3E%3CmxGeometry%20width%3D%2280%22%20height%3D%2290%22%20as%3D%22geometry%22%2F%3E%3C%2FmxCell%3E%3CmxCell%20id%3D%225%22%20value%3D%22%22%20style%3D%22rounded%3D0%3BwhiteSpace%3Dwrap%3Bhtml%3D1%3B%22%20vertex%3D%221%22%20parent%3D%222%22%3E%3CmxGeometry%20x%3D%2220%22%20y%3D%2270%22%20width%3D%2240%22%20height%3D%2210%22%20as%3D%22geometry%22%2F%3E%3C%2FmxCell%3E%3CmxCell%20id%3D%226%22%20value%3D%22%22%20style%3D%22rounded%3D0%3BwhiteSpace%3Dwrap%3Bhtml%3D1%3B%22%20vertex%3D%221%22%20parent%3D%222%22%3E%3CmxGeometry%20x%3D%2220%22%20width%3D%2240%22%20height%3D%2230%22%20as%3D%22geometry%22%2F%3E%3C%2FmxCell%3E%3C%2Froot%3E%3C%2FmxGraphModel%3E&lt;/span&gt;" style="rounded=0;whiteSpace=wrap;html=1;fontSize=14;" vertex="1" parent="2zIadrbv-KkHklu8nSw9-44">
          <mxGeometry x="-16.3" width="116.3" height="152" as="geometry" />
        </mxCell>
        <mxCell id="2zIadrbv-KkHklu8nSw9-38" value="" style="rounded=0;whiteSpace=wrap;html=1;" parent="2zIadrbv-KkHklu8nSw9-44" vertex="1">
          <mxGeometry y="12" width="80" height="120" as="geometry" />
        </mxCell>
        <mxCell id="2zIadrbv-KkHklu8nSw9-39" value="" style="rounded=0;whiteSpace=wrap;html=1;" parent="2zIadrbv-KkHklu8nSw9-44" vertex="1">
          <mxGeometry x="10" y="12" width="60" height="60" as="geometry" />
        </mxCell>
        <mxCell id="2zIadrbv-KkHklu8nSw9-40" value="" style="whiteSpace=wrap;html=1;aspect=fixed;" parent="2zIadrbv-KkHklu8nSw9-44" vertex="1">
          <mxGeometry x="30" y="28" width="20" height="20" as="geometry" />
        </mxCell>
        <mxCell id="2zIadrbv-KkHklu8nSw9-41" value="" style="ellipse;whiteSpace=wrap;html=1;aspect=fixed;" parent="2zIadrbv-KkHklu8nSw9-44" vertex="1">
          <mxGeometry x="35" y="33" width="10" height="10" as="geometry" />
        </mxCell>
        <mxCell id="2zIadrbv-KkHklu8nSw9-42" value="" style="rounded=0;whiteSpace=wrap;html=1;" parent="2zIadrbv-KkHklu8nSw9-44" vertex="1">
          <mxGeometry x="32.5" y="48" width="15" height="24" as="geometry" />
        </mxCell>
        <mxCell id="2zIadrbv-KkHklu8nSw9-43" value="ESP32CAM" style="text;html=1;whiteSpace=wrap;strokeColor=none;fillColor=none;align=center;verticalAlign=middle;rounded=0;" parent="2zIadrbv-KkHklu8nSw9-44" vertex="1">
          <mxGeometry x="10" y="82" width="60" height="30" as="geometry" />
        </mxCell>
        <mxCell id="2zIadrbv-KkHklu8nSw9-46" value="" style="endArrow=classic;html=1;rounded=0;exitX=0;exitY=0.5;exitDx=0;exitDy=0;entryX=1;entryY=0.5;entryDx=0;entryDy=0;" parent="1" source="2zIadrbv-KkHklu8nSw9-38" target="2zIadrbv-KkHklu8nSw9-2" edge="1">
          <mxGeometry width="50" height="50" relative="1" as="geometry">
            <mxPoint x="410" y="480" as="sourcePoint" />
            <mxPoint x="460" y="430" as="targetPoint" />
          </mxGeometry>
        </mxCell>
        <mxCell id="2zIadrbv-KkHklu8nSw9-47" value="EDP-NOW" style="edgeLabel;html=1;align=center;verticalAlign=middle;resizable=0;points=[];" parent="2zIadrbv-KkHklu8nSw9-46" vertex="1" connectable="0">
          <mxGeometry x="-0.0371" y="3" relative="1" as="geometry">
            <mxPoint y="-1" as="offset" />
          </mxGeometry>
        </mxCell>
        <mxCell id="2zIadrbv-KkHklu8nSw9-48" value="MQTT Broker" style="rounded=0;whiteSpace=wrap;html=1;" parent="1" vertex="1">
          <mxGeometry x="-240" y="160" width="160" height="200" as="geometry" />
        </mxCell>
        <mxCell id="2zIadrbv-KkHklu8nSw9-49" value="" style="endArrow=classic;startArrow=classic;html=1;rounded=0;exitX=1;exitY=0.5;exitDx=0;exitDy=0;entryX=0;entryY=0.5;entryDx=0;entryDy=0;" parent="1" source="2zIadrbv-KkHklu8nSw9-48" target="2zIadrbv-KkHklu8nSw9-1" edge="1">
          <mxGeometry width="50" height="50" relative="1" as="geometry">
            <mxPoint x="-20" y="310" as="sourcePoint" />
            <mxPoint x="30" y="260" as="targetPoint" />
          </mxGeometry>
        </mxCell>
        <mxCell id="2zIadrbv-KkHklu8nSw9-50" value="MQTT/Internet" style="edgeLabel;html=1;align=center;verticalAlign=middle;resizable=0;points=[];" parent="2zIadrbv-KkHklu8nSw9-49" vertex="1" connectable="0">
          <mxGeometry x="-0.0302" y="2" relative="1" as="geometry">
            <mxPoint as="offset" />
          </mxGeometry>
        </mxCell>
        <mxCell id="2zIadrbv-KkHklu8nSw9-54" value="Node-Red" style="whiteSpace=wrap;html=1;" parent="1" vertex="1">
          <mxGeometry x="-520" y="220" width="160" height="80" as="geometry" />
        </mxCell>
        <mxCell id="2zIadrbv-KkHklu8nSw9-55" value="User" style="whiteSpace=wrap;html=1;aspect=fixed;" parent="1" vertex="1">
          <mxGeometry x="-480" y="400" width="80" height="80" as="geometry" />
        </mxCell>
        <mxCell id="2zIadrbv-KkHklu8nSw9-56" style="edgeStyle=orthogonalEdgeStyle;rounded=0;orthogonalLoop=1;jettySize=auto;html=1;entryX=0.5;entryY=1;entryDx=0;entryDy=0;" parent="1" source="2zIadrbv-KkHklu8nSw9-38" target="2zIadrbv-KkHklu8nSw9-55" edge="1">
          <mxGeometry relative="1" as="geometry" />
        </mxCell>
        <mxCell id="2zIadrbv-KkHklu8nSw9-58" value="Widi Acess Point" style="edgeLabel;html=1;align=center;verticalAlign=middle;resizable=0;points=[];" parent="2zIadrbv-KkHklu8nSw9-56" vertex="1" connectable="0">
          <mxGeometry x="-0.0799" relative="1" as="geometry">
            <mxPoint as="offset" />
          </mxGeometry>
        </mxCell>
        <mxCell id="2zIadrbv-KkHklu8nSw9-61" value="" style="endArrow=classic;startArrow=classic;html=1;rounded=0;entryX=0.5;entryY=1;entryDx=0;entryDy=0;exitX=0.5;exitY=0;exitDx=0;exitDy=0;" parent="1" source="2zIadrbv-KkHklu8nSw9-55" target="2zIadrbv-KkHklu8nSw9-54" edge="1">
          <mxGeometry width="50" height="50" relative="1" as="geometry">
            <mxPoint x="-260" y="420" as="sourcePoint" />
            <mxPoint x="-210" y="370" as="targetPoint" />
          </mxGeometry>
        </mxCell>
        <mxCell id="2zIadrbv-KkHklu8nSw9-62" value="" style="endArrow=classic;startArrow=classic;html=1;rounded=0;exitX=1;exitY=0.5;exitDx=0;exitDy=0;entryX=0;entryY=0.5;entryDx=0;entryDy=0;" parent="1" source="2zIadrbv-KkHklu8nSw9-54" target="2zIadrbv-KkHklu8nSw9-48" edge="1">
          <mxGeometry width="50" height="50" relative="1" as="geometry">
            <mxPoint x="-260" y="420" as="sourcePoint" />
            <mxPoint x="-210" y="370" as="targetPoint" />
          </mxGeometry>
        </mxCell>
        <mxCell id="2zIadrbv-KkHklu8nSw9-63" value="MQTT/Internet" style="edgeLabel;html=1;align=center;verticalAlign=middle;resizable=0;points=[];" parent="2zIadrbv-KkHklu8nSw9-62" vertex="1" connectable="0">
          <mxGeometry x="0.0109" y="-1" relative="1" as="geometry">
            <mxPoint as="offset" />
          </mxGeometry>
        </mxCell>
        <mxCell id="2zIadrbv-KkHklu8nSw9-64" value="" style="endArrow=none;dashed=1;html=1;dashPattern=1 3;strokeWidth=2;rounded=0;" parent="1" edge="1">
          <mxGeometry width="50" height="50" relative="1" as="geometry">
            <mxPoint y="640" as="sourcePoint" />
            <mxPoint y="80" as="targetPoint" />
          </mxGeometry>
        </mxCell>
        <mxCell id="2zIadrbv-KkHklu8nSw9-65" value="" style="endArrow=none;dashed=1;html=1;dashPattern=1 3;strokeWidth=2;rounded=0;" parent="1" edge="1">
          <mxGeometry width="50" height="50" relative="1" as="geometry">
            <mxPoint x="560" y="640" as="sourcePoint" />
            <mxPoint x="560" y="80" as="targetPoint" />
          </mxGeometry>
        </mxCell>
        <mxCell id="2zIadrbv-KkHklu8nSw9-67" value="User" style="text;html=1;whiteSpace=wrap;strokeColor=none;fillColor=none;align=center;verticalAlign=middle;rounded=0;" parent="1" vertex="1">
          <mxGeometry x="-310" y="20" width="60" height="30" as="geometry" />
        </mxCell>
        <mxCell id="2zIadrbv-KkHklu8nSw9-68" value="Module" style="text;html=1;whiteSpace=wrap;strokeColor=none;fillColor=none;align=center;verticalAlign=middle;rounded=0;" parent="1" vertex="1">
          <mxGeometry x="660" y="30" width="60" height="30" as="geometry" />
        </mxCell>
      </root>
    </mxGraphModel>
  </diagram>
</mxfile>
